<?xml version="1.0" encoding="UTF-8" standalone="no"?>
<!-- Generator: Adobe Illustrator 16.0.0, SVG Export Plug-In . SVG Version: 6.00 Build 0)  -->

<svg
   xmlns:dc="http://purl.org/dc/elements/1.1/"
   xmlns:cc="http://creativecommons.org/ns#"
   xmlns:rdf="http://www.w3.org/1999/02/22-rdf-syntax-ns#"
   xmlns:svg="http://www.w3.org/2000/svg"
   xmlns="http://www.w3.org/2000/svg"
   xmlns:sodipodi="http://sodipodi.sourceforge.net/DTD/sodipodi-0.dtd"
   xmlns:inkscape="http://www.inkscape.org/namespaces/inkscape"
   version="1.1"
   id="Livello_1"
   x="0px"
   y="0px"
   width="960px"
   height="560px"
   viewBox="0 0 960 560"
   enable-background="new 0 0 960 560"
   xml:space="preserve"
   inkscape:version="0.48.4 r9939"
   sodipodi:docname="nethserver-01.svg"><metadata
     id="metadata39"><rdf:RDF><cc:Work
         rdf:about=""><dc:format>image/svg+xml</dc:format><dc:type
           rdf:resource="http://purl.org/dc/dcmitype/StillImage" /><dc:title></dc:title></cc:Work></rdf:RDF></metadata><defs
     id="defs37" /><sodipodi:namedview
     pagecolor="#ffffff"
     bordercolor="#666666"
     borderopacity="1"
     objecttolerance="10"
     gridtolerance="10"
     guidetolerance="10"
     inkscape:pageopacity="0"
     inkscape:pageshadow="2"
     inkscape:window-width="1543"
     inkscape:window-height="881"
     id="namedview35"
     showgrid="false"
     inkscape:zoom="1"
     inkscape:cx="528.88707"
     inkscape:cy="354.08116"
     inkscape:window-x="453"
     inkscape:window-y="81"
     inkscape:window-maximized="0"
     inkscape:current-layer="Livello_1" /><path
     fill="#00A1DE"
     d="M610.395,261.348c-2.824-2.668-6.316-3.963-10.697-3.963c-4.33,0-7.789,1.277-10.576,3.902  c-2.832,2.631-4.266,6.191-4.266,10.578V295.9h6.219v-23.824c0-2.301,0.625-4.248,1.852-5.797c1.574-2.014,3.789-2.988,6.771-2.988  c2.99,0,5.213,0.975,6.795,2.99L610.395,261.348z"
     id="path3"
     inkscape:export-filename="/home/davidep/Pictures/NethServerLogo/nethserver2.png"
     inkscape:export-xdpi="26.167608"
     inkscape:export-ydpi="26.167608"
     style="fill:#139fd5;fill-opacity:1" /><path
     fill="#00A1DE"
     d="M717.109,261.348c-2.824-2.668-6.32-3.963-10.695-3.963c-4.332,0-7.793,1.277-10.578,3.902  c-2.832,2.631-4.264,6.191-4.264,10.578V295.9h6.221v-23.824c0-2.301,0.621-4.248,1.844-5.797c1.578-2.014,3.793-2.988,6.777-2.988  c2.988,0,5.211,0.975,6.789,2.99L717.109,261.348z"
     id="path5"
     inkscape:export-filename="/home/davidep/Pictures/NethServerLogo/nethserver2.png"
     inkscape:export-xdpi="26.167608"
     inkscape:export-ydpi="26.167608"
     style="fill:#139fd5;fill-opacity:1" /><path
     fill="#1A171B"
     d="M436.196,279.141c0-6.783-1.516-12.158-4.5-15.971c-3.039-3.889-7.305-5.859-12.678-5.859  c-5.436,0-9.859,2.045-13.166,6.074c-3.117,3.809-4.695,8.645-4.695,14.383c0,5.941,1.432,10.758,4.266,14.322  c3.125,3.895,7.703,5.873,13.596,5.873c4.643,0,8.447-1.258,11.32-3.752c2.439-2.137,4.295-5.234,5.498-9.205l0.352-1.139h-6.652  l-0.16,0.68c-0.586,2.473-1.781,4.35-3.656,5.725c-1.857,1.367-4.117,2.055-6.701,2.055c-3.736,0-6.564-1.213-8.631-3.727  c-1.789-2.18-2.766-5.059-2.898-8.576h28.707V279.141z M419.018,262.938c3.486,0,6.127,1.219,8.094,3.725  c1.658,2.096,2.561,4.812,2.697,8.055h-22.211c0.527-3.205,1.656-5.889,3.379-7.992  C413.075,264.176,415.704,262.938,419.018,262.938z"
     id="path7"
     inkscape:export-filename="/home/davidep/Pictures/NethServerLogo/nethserver.png"
     inkscape:export-xdpi="26.167608"
     inkscape:export-ydpi="26.167608" /><path
     fill="#1A171B"
     d="M454.004,264.719h8.188v-6.025h-8.645v-10.357h-6.225v10.357h-5.975v6.025h5.975v17.789  c0,4.389,1.436,7.945,4.264,10.576c2.789,2.625,6.246,3.904,10.582,3.904v-5.906c-2.988,0-5.197-0.977-6.775-2.988  c-1.225-1.549-1.846-3.5-1.846-5.799v-17.576H454.004z"
     id="path9"
     inkscape:export-filename="/home/davidep/Pictures/NethServerLogo/nethserver.png"
     inkscape:export-xdpi="26.167608"
     inkscape:export-ydpi="26.167608" /><path
     fill="#00A1DE"
     d="M577.621,279.141c0-6.783-1.512-12.158-4.496-15.971c-3.043-3.889-7.303-5.859-12.676-5.859  c-5.434,0-9.869,2.045-13.172,6.074c-3.117,3.809-4.695,8.645-4.695,14.383c0,5.941,1.434,10.758,4.27,14.322  c3.125,3.895,7.697,5.873,13.598,5.873c4.633,0,8.443-1.258,11.316-3.752c2.441-2.137,4.293-5.234,5.502-9.205l0.352-1.139h-6.654  l-0.16,0.68c-0.586,2.473-1.789,4.35-3.656,5.725c-1.863,1.367-4.117,2.055-6.699,2.055c-3.746,0-6.566-1.213-8.633-3.727  c-1.785-2.18-2.766-5.059-2.906-8.576h28.711V279.141z M560.449,262.938c3.484,0,6.125,1.219,8.084,3.725  c1.658,2.096,2.568,4.812,2.701,8.055h-22.209c0.521-3.205,1.65-5.889,3.373-7.992C554.496,264.176,557.129,262.938,560.449,262.938  z"
     id="path11"
     inkscape:export-filename="/home/davidep/Pictures/NethServerLogo/nethserver2.png"
     inkscape:export-xdpi="26.167608"
     inkscape:export-ydpi="26.167608"
     style="fill:#139fd5;fill-opacity:1" /><g
     id="g13"
     inkscape:export-filename="/home/davidep/Pictures/NethServerLogo/nethserver2.png"
     inkscape:export-xdpi="26.167608"
     inkscape:export-ydpi="26.167608"
     style="fill:#139fd5;fill-opacity:1"><path
       fill="#00A1DE"
       d="M612.049,258.693h7.662l10.203,28.285l10.525-28.285h7.189l-15.125,37.436h-5.762L612.049,258.693z"
       id="path15"
       style="fill:#139fd5;fill-opacity:1" /></g><path
     d="M684.33,279.141c0-6.783-1.514-12.158-4.5-15.971c-3.033-3.889-7.303-5.859-12.68-5.859  c-5.432,0-9.865,2.045-13.162,6.074c-3.113,3.809-4.699,8.645-4.699,14.383c0,5.941,1.438,10.758,4.273,14.322  c3.125,3.895,7.691,5.873,13.588,5.873c4.641,0,8.447-1.258,11.326-3.752c2.441-2.137,4.293-5.234,5.496-9.205l0.352-1.139h-6.652  l-0.156,0.68c-0.592,2.473-1.789,4.35-3.662,5.725c-1.857,1.367-4.119,2.055-6.703,2.055c-3.74,0-6.557-1.213-8.625-3.727  c-1.789-2.18-2.771-5.059-2.906-8.576h28.711V279.141z M667.15,262.938c3.486,0,6.127,1.219,8.092,3.725  c1.658,2.096,2.566,4.812,2.699,8.055h-22.205c0.518-3.205,1.65-5.889,3.367-7.992C661.203,264.176,663.84,262.938,667.15,262.938z"
     id="path17"
     inkscape:export-filename="/home/davidep/Pictures/NethServerLogo/nethserver2.png"
     inkscape:export-xdpi="26.167608"
     inkscape:export-ydpi="26.167608"
     fill="#00A1DE"
     style="fill:#139fd5;fill-opacity:1" /><path
     fill="#1A171B"
     d="M379.801,263.291c2.992,0,5.211,0.975,6.793,2.99c1.219,1.547,1.838,3.498,1.838,5.795V295.9h6.227v-24.033  c0-4.33-1.404-7.863-4.158-10.52c-2.828-2.668-6.318-3.963-10.699-3.963c-4.328,0-7.785,1.277-10.578,3.908  c-2.832,2.627-4.262,6.186-4.262,10.574V295.9h6.219v-23.824c0-2.301,0.621-4.248,1.848-5.797  C374.604,264.266,376.817,263.291,379.801,263.291z"
     id="path19"
     inkscape:export-filename="/home/davidep/Pictures/NethServerLogo/nethserver.png"
     inkscape:export-xdpi="26.167608"
     inkscape:export-ydpi="26.167608" /><path
     fill="#1A171B"
     d="M495.875,261.348c-2.824-2.668-6.312-3.963-10.693-3.963c-3.377,0-6.212,0.787-8.623,2.373v-11.422h-6.219  v23.531V295.9h6.219v-23.824c0-2.301,0.623-4.248,1.848-5.797c1.578-2.014,3.791-2.988,6.775-2.988c2.986,0,5.209,0.975,6.787,2.99  c1.223,1.547,1.84,3.498,1.84,5.795V295.9h6.227v-24.033C500.035,267.537,498.633,264.004,495.875,261.348z"
     id="path21"
     inkscape:export-filename="/home/davidep/Pictures/NethServerLogo/nethserver.png"
     inkscape:export-xdpi="26.167608"
     inkscape:export-ydpi="26.167608" /><path
     fill="#00A1DE"
     d="M535.039,278.113c-1.402-1.107-3.562-2.014-6.428-2.686l-6.736-1.588c-2.676-0.627-4.391-1.162-5.25-1.652  c-1.42-0.77-2.152-1.969-2.152-3.557c0-1.682,0.725-3.018,2.148-3.955c1.35-0.891,3.16-1.34,5.383-1.34  c1.98,0,3.676,0.342,5.031,1.021c1.957,0.986,3.078,2.625,3.355,4.869h6.621c-0.25-3.65-1.656-6.379-4.299-8.338  c-2.787-2.062-6.197-3.117-10.15-3.117c-4.746,0-8.375,1.104-10.789,3.275c-2.396,2.152-3.613,4.9-3.613,8.16  c0,3.609,1.188,6.172,3.641,7.855c1.465,1.014,4.234,1.969,8.23,2.857l4.156,0.912c2.508,0.535,4.312,1.146,5.502,1.865  c1.291,0.799,1.945,1.949,1.945,3.418c0,2.424-1.275,4.1-3.805,4.982c-1.258,0.434-2.9,0.654-4.889,0.654  c-3.387,0-5.83-0.867-7.266-2.566c-0.721-0.869-1.23-2.121-1.51-3.738h-6.619c0.127,3.539,1.516,6.371,4.121,8.426  c2.777,2.195,6.68,3.309,11.586,3.309c4.797,0,8.545-1.127,11.133-3.346c2.578-2.197,3.881-4.994,3.881-8.32  C538.268,282.244,537.207,279.826,535.039,278.113z"
     id="path23"
     inkscape:export-filename="/home/davidep/Pictures/NethServerLogo/nethserver2.png"
     inkscape:export-xdpi="26.167608"
     inkscape:export-ydpi="26.167608"
     style="fill:#139fd5;fill-opacity:1" /><path
     d="M244.76,280.333c0-28.49,23.1-51.588,51.592-51.588s51.588,23.098,51.588,51.588  c0,28.495-23.096,51.593-51.588,51.593S244.76,308.828,244.76,280.333z"
     id="path25"
     fill="#00A1DE"
     inkscape:export-filename="/home/davidep/Pictures/NethServerLogo/nethserver2.png"
     inkscape:export-xdpi="26.167608"
     inkscape:export-ydpi="26.167608"
     style="fill:#139fd5;fill-opacity:1" /><g
     id="g27"
     inkscape:export-filename="/home/davidep/Pictures/NethServerLogo/nethserver.png"
     inkscape:export-xdpi="26.167608"
     inkscape:export-ydpi="26.167608"><path
       fill="#FFFFFF"
       d="M308.059,259.543c3.996,0.064,7.465,1.141,10.303,3.24c2.768,2.055,4.248,4.92,4.51,8.752h-6.949   c-0.289-2.354-1.473-4.072-3.523-5.107c-1.191-0.6-2.68-0.893-4.34-0.982V259.543z"
       id="path29" /><path
       fill="#FFFFFF"
       d="M283.95,266.168c-3.086,0-5.375,1.006-6.996,3.082c-1.266,1.592-1.902,3.609-1.902,5.99v22.15h-7.062   v-22.375c0-4.719,1.547-8.539,4.594-11.369c3-2.824,6.715-4.197,11.367-4.197c4.693,0,8.449,1.387,11.48,4.254   c2.971,2.863,4.48,6.674,4.48,11.312v7.709h-7.055v-7.484c0-2.381-0.641-4.398-1.902-5.99   C289.329,267.174,287.04,266.168,283.95,266.168z"
       id="path31" /><path
       fill="#FFFFFF"
       d="M320.122,296.59c-2.727,2.328-6.656,3.508-11.691,3.508c-5.156,0-8.457-1.17-11.371-3.471   c-2.742-2.154-4.195-5.127-4.328-8.848h6.949c0.293,1.693,0.83,3.02,1.586,3.92c1.508,1.789,3.273,2.699,6.832,2.699   c2.09,0,3.812-0.236,5.137-0.691c2.648-0.922,3.996-2.684,3.996-5.225c0-1.541-0.688-2.75-2.047-3.598   c-1.25-0.746-3.137-1.391-5.775-1.955l-1.354-0.299h0.004v-6.789l5.998,1.412c3.002,0.709,5.273,1.658,6.744,2.816   c2.281,1.801,3.387,4.342,3.387,7.781C324.188,291.344,322.821,294.281,320.122,296.59z"
       id="path33" /></g></svg>